<svg xmlns="http://www.w3.org/2000/svg" viewBox="0 0 70.08 76.71"><defs><style>.cls-1{fill:#ff6a4e;}</style></defs><title>author_url_icon</title><g id="Layer_2" data-name="Layer 2"><g id="Layer_1-2" data-name="Layer 1"><path class="cls-1" d="M70.08,25.75a11.06,11.06,0,0,0-.52-3.53,13.54,13.54,0,0,0-6.07-7.9C56.27,10.14,49,6,41.83,1.78A12.87,12.87,0,0,0,35.53,0a12.91,12.91,0,0,0-7,1.64C21.26,5.87,13.94,10,6.69,14.31A12.83,12.83,0,0,0,.05,25.8C0,34.18,0,42.56,0,50.94A11.47,11.47,0,0,0,.6,54.71a13.62,13.62,0,0,0,6,7.68q10.76,6.19,21.49,12.43a13,13,0,0,0,6,1.86,13,13,0,0,0,7.46-1.63c7.23-4.19,14.46-8.39,21.71-12.54a13.09,13.09,0,0,0,4.78-4.71,12.24,12.24,0,0,0,2-6.19c0-4.42,0-8.83,0-13.25h0Q70.07,32.06,70.08,25.75ZM38,44.37a6.25,6.25,0,0,1-1.67,3.17l-5.28,5.28a6.38,6.38,0,0,1-4.56,1.83,7.68,7.68,0,0,1-5.44-2.31c-2.89-2.89-3.1-7.37-.48-10l5.28-5.29A6.27,6.27,0,0,1,29,35.4a1.5,1.5,0,1,1,.61,2.93,3.23,3.23,0,0,0-1.66.86l-5.28,5.28c-1.45,1.45-1.24,4,.48,5.75s4.3,1.93,5.75.48l5.29-5.28a3.31,3.31,0,0,0,.85-1.65,1.5,1.5,0,0,1,2.94.6Zm2-13.11a1.5,1.5,0,1,1,2.12,2.12L30.07,45.45a1.53,1.53,0,0,1-1.06.44A1.5,1.5,0,0,1,28,43.33Zm9.49,3.1-5.28,5.29a6.24,6.24,0,0,1-3.16,1.66,1.55,1.55,0,0,1-.31,0,1.5,1.5,0,0,1-.3-3,3.2,3.2,0,0,0,1.65-.86l5.28-5.28a3.45,3.45,0,0,0,1-2.69,5,5,0,0,0-4.5-4.5,3.45,3.45,0,0,0-2.69,1l-5.28,5.28A3.12,3.12,0,0,0,35,32.94a1.5,1.5,0,1,1-2.94-.61,6.24,6.24,0,0,1,1.66-3.16L39,23.89a6.36,6.36,0,0,1,5-1.83,8,8,0,0,1,7.31,7.31A6.36,6.36,0,0,1,49.5,34.36Z"/></g></g></svg>