<svg xmlns="http://www.w3.org/2000/svg" viewBox="0 0 351.98 91.58"><defs><style>.cls-1{fill:#ff4321;}</style></defs><title>Layer 1-2 (2)</title><g id="Layer_2" data-name="Layer 2"><g id="Layer_1-2" data-name="Layer 1"><g id="Layer_1-2-2" data-name="Layer 1-2"><g id="Layer_1-2-2-2" data-name="Layer 1-2-2-2"><g id="Path_71" data-name="Path 71"><path class="cls-1" d="M54,83.9a46.86,46.86,0,0,1-22.4-5.72c-18.83-10-27.91-13.57-28-13.61l-3-1.18,1.74-2.72c.59-.91,1.25-2,2-3.14,4.45-7.15,11.18-18,20.51-27.17l1.45-1.48C38.09,16.55,43.2,14.19,48.15,12.65l.2-.09c5.52-2,18-2.71,28.11,3.43,8.33,5,13.4,13.44,15.07,25C96,71.46,73.93,80.1,69.47,81.52a8.58,8.58,0,0,1-1.42.32,5,5,0,0,0-.67.14A47.72,47.72,0,0,1,54,83.9ZM8.48,60.9c4.08,1.78,12.46,5.65,25.63,12.63a41.55,41.55,0,0,0,31.72,3.38,11.47,11.47,0,0,1,1.32-.29,5.12,5.12,0,0,0,.68-.14c5.26-1.7,22.17-9.16,18.42-34.73h0c-1.43-9.91-5.66-17-12.56-21.23-8.84-5.34-19.53-4.35-23.45-3a2.9,2.9,0,0,1-.41.16C46.34,18.75,42,20.09,30.1,32.55c-.21.22-1.33,1.36-1.54,1.56C19.66,42.9,13.13,53.39,8.81,60.33c-.11.19-.23.37-.34.55Z"/></g><g id="Path_72" data-name="Path 72"><path class="cls-1" d="M50.16,81.72A55.15,55.15,0,0,1,26,75.8C10.59,68,3.19,65.17,3.12,65.14L0,64l1.84-2.78c.63-.94,1.32-2.13,2.13-3.51A81.11,81.11,0,0,1,18.08,38.94a4.58,4.58,0,0,1,.56-.75C28.71,28.7,37.23,24.66,38.84,24a2.54,2.54,0,0,1,.46-.17c2.72-1.2,12.4-3.06,21.49,1.07,7.59,3.44,12.83,10,15.57,19.53h0c3.91,13.65.09,22.26-3.8,27.09a29,29,0,0,1-13.36,9c-.4.11-.81.2-1.22.27a4.59,4.59,0,0,0-.51.1A26.15,26.15,0,0,1,50.16,81.72ZM8,61.38c3.51,1.5,10.21,4.5,20.42,9.69C39.8,76.88,52,77,55.91,75.78a8.15,8.15,0,0,1,1.19-.26,3.1,3.1,0,0,0,.51-.11c4.74-1.51,19.8-8.11,13.65-29.56h0c-2.29-8-6.55-13.4-12.66-16.17-7.36-3.34-15.54-1.79-17.14-1.06a3.54,3.54,0,0,1-.57.22c-1.75.79-9.28,4.47-18.31,12.93a3.66,3.66,0,0,1-.59.77A75.37,75.37,0,0,0,8.55,60.35Z"/></g><g id="Path_73" data-name="Path 73"><path class="cls-1" d="M7.44,91.58,8,87.76c.57-4.07,2-11.06,4.73-22.65,2.54-10.89,10.43-20.64,10.77-21s8.29-9.58,19-9.89c5.91-.18,11.41,2.34,16.33,7.49h0c15.17,15.83,2.89,30.6.28,33.41l-.08.07C54.7,79.37,43.58,86,32.27,87.37c-14.42,1.82-21,3.33-21.06,3.34ZM43,39.47h-.39c-8.36.24-15,7.91-15.06,8s-7.42,9.18-9.67,18.86c-1.94,8.31-3.25,14.32-4,18.45,3.43-.63,9.22-1.59,17.74-2.66,10.89-1.37,20.74-7.89,23.62-10.71,2.9-3.13,11.24-14-.27-26.07h0C51.22,41.44,47.2,39.47,43,39.47Z"/></g><g id="Path_74" data-name="Path 74"><path class="cls-1" d="M66.58,43.14c-2.64,0-10.84-.48-16.5-6.09-3.94-3.92-5.76-9.4-5.41-16.29h0C45,14.57,47.77.16,66.77,0h0a6.74,6.74,0,0,1,1,.08h.35c4.14,0,13.36,2,21.65,9.27,9.61,8.49,14.45,11.94,14.49,12l3,2.09-2.89,2.19c-.56.43-1.16.91-1.83,1.45a68.17,68.17,0,0,1-14.93,9.55h0l-.23.18c-8,5.3-19.41,6.24-19.9,6.28A4.53,4.53,0,0,1,66.58,43.14ZM50,21c-.26,5.31,1,9.42,3.84,12.23,5,4.94,13.18,4.57,13.26,4.57s10.4-.87,17.2-5.34a6.51,6.51,0,0,1,.6-.43l.29-.15a61.93,61.93,0,0,0,13.26-8.34C96,21.66,92,18.38,86.26,13.36,79.66,7.53,71.8,5.42,68.13,5.42a8.42,8.42,0,0,1-1-.08H66.8C59.49,5.37,50.62,8.15,50,21Z"/></g><path class="cls-1" d="M149.91,26.59V37q-7.64-6.41-15.81-6.4a20.14,20.14,0,0,0-15.17,6.47,21.84,21.84,0,0,0-6.21,15.74,21.28,21.28,0,0,0,6.21,15.51,20.48,20.48,0,0,0,15.2,6.32A18.81,18.81,0,0,0,142,73.17a23,23,0,0,0,3.77-2,44.07,44.07,0,0,0,4.1-3.1V78.65A31.82,31.82,0,0,1,134,82.93a29.34,29.34,0,0,1-21.37-8.74,29,29,0,0,1-8.82-21.26A30,30,0,0,1,111.21,33q9.08-10.71,23.49-10.71A29.89,29.89,0,0,1,149.91,26.59Z"/><path class="cls-1" d="M196.86,45h8.55v3.4A14,14,0,0,1,215.48,44c4.28,0,7.63,1.35,10,4q3.11,3.44,3.1,11.23V81.87H220V61.29q0-5.46-1.51-7.53t-5.37-2.12q-4.25,0-6,2.8c-1.17,1.87-1.74,5.06-1.74,9.65V81.87h-8.55Z"/><path class="cls-1" d="M261.51,45h8.55V81.87h-8.55V78q-5.25,4.92-11.31,4.92a16.32,16.32,0,0,1-12.64-5.53,20.59,20.59,0,0,1-4.95-14.07,19.87,19.87,0,0,1,4.95-13.81A16,16,0,0,1,250,44q6.44,0,11.54,5.29Zm-20.2,18.31A12.85,12.85,0,0,0,244.15,72a9.28,9.28,0,0,0,7.34,3.37,9.75,9.75,0,0,0,7.64-3.25,12.62,12.62,0,0,0,2.87-8.6A12.62,12.62,0,0,0,259.13,55a9.6,9.6,0,0,0-7.57-3.29A9.39,9.39,0,0,0,244.22,55a12.25,12.25,0,0,0-2.91,8.33Z"/><path class="cls-1" d="M181.71,45.11h8.55V82h-8.55V78.11Q176.46,83,170.4,83a16.32,16.32,0,0,1-12.64-5.53,20.64,20.64,0,0,1-4.95-14.07,19.87,19.87,0,0,1,4.95-13.81,16,16,0,0,1,12.44-5.51q6.45,0,11.54,5.29Zm-20.2,18.31a12.85,12.85,0,0,0,2.84,8.69,9.33,9.33,0,0,0,7.34,3.37,9.74,9.74,0,0,0,7.64-3.25,12.57,12.57,0,0,0,2.87-8.6,12.57,12.57,0,0,0-2.87-8.52,9.6,9.6,0,0,0-7.57-3.29,9.39,9.39,0,0,0-7.34,3.29,12.3,12.3,0,0,0-2.91,8.33Z"/><path class="cls-1" d="M276.81,45h8.51v3.29a16.51,16.51,0,0,1,4.16-3.37,9.52,9.52,0,0,1,4.39-.94,13.81,13.81,0,0,1,7,2.19L297,54a8.14,8.14,0,0,0-4.73-1.74q-7,0-7,10.52V81.87h-8.51Z"/><path class="cls-1" d="M311.3,45V81.87h-8.51V45Z"/><path class="cls-1" d="M351.64,65.45H325.23a11.22,11.22,0,0,0,2.95,7.22,9,9,0,0,0,6.7,2.65,8.79,8.79,0,0,0,5.26-1.51,21.41,21.41,0,0,0,4.65-5.6l7.19,4a28.52,28.52,0,0,1-3.52,4.86,18.8,18.8,0,0,1-4,3.33,15.88,15.88,0,0,1-4.58,1.91,22.32,22.32,0,0,1-5.34.61q-8.24,0-13.24-5.3t-5-14.15q0-8.74,4.84-14.15t13-5.32q8.13,0,12.86,5.18t4.69,14.26Zm-8.74-7q-1.78-6.81-8.59-6.81a8.74,8.74,0,0,0-2.91.47,8.33,8.33,0,0,0-2.48,1.36A8.51,8.51,0,0,0,327,55.65a9.89,9.89,0,0,0-1.21,2.84Z"/><circle class="cls-1" cx="307" cy="29.29" r="6"/></g></g></g></g></svg>