<svg xmlns="http://www.w3.org/2000/svg" viewBox="0 0 44.06 91.58"><defs><style>.cls-1{fill:#fff;}.cls-2{fill:#ff4321;}</style></defs><title>Asset 9</title><g id="Layer_2" data-name="Layer 2"><g id="Layer_1-2" data-name="Layer 1"><rect class="cls-1" x="0.07" width="43.99" height="91.58"/><path class="cls-2" d="M28.91,45.11h8.55V82H28.91V78.11Q23.66,83,17.6,83A16.32,16.32,0,0,1,5,77.47,20.68,20.68,0,0,1,0,63.4,19.87,19.87,0,0,1,5,49.59,16,16,0,0,1,17.4,44.08q6.45,0,11.54,5.29ZM8.71,63.42a12.85,12.85,0,0,0,2.84,8.69,9.33,9.33,0,0,0,7.34,3.37,9.72,9.72,0,0,0,7.64-3.25,12.57,12.57,0,0,0,2.87-8.6,12.52,12.52,0,0,0-2.87-8.52A9.6,9.6,0,0,0,19,51.82a9.41,9.41,0,0,0-7.34,3.29,12.3,12.3,0,0,0-2.91,8.33Z"/></g></g></svg>