<svg xmlns="http://www.w3.org/2000/svg" viewBox="0 0 35.68 91.58"><defs><style>.cls-1{fill:#fff;}.cls-2{fill:#ff4321;}</style></defs><title>Asset 14</title><g id="Layer_2" data-name="Layer 2"><g id="Layer_1-2" data-name="Layer 1"><rect class="cls-1" width="35.68" height="91.58"/><path class="cls-2" d="M35.34,65.45H8.93a11.22,11.22,0,0,0,3,7.22,9,9,0,0,0,6.7,2.65,8.79,8.79,0,0,0,5.26-1.51,21.41,21.41,0,0,0,4.65-5.6l7.19,4a28.52,28.52,0,0,1-3.52,4.86,18.8,18.8,0,0,1-4,3.33,15.88,15.88,0,0,1-4.58,1.91,22.32,22.32,0,0,1-5.34.61Q10,82.92,5,77.62T0,63.47q0-8.74,4.84-14.15t13-5.32Q26,44,30.7,49.18t4.69,14.26Zm-8.74-7Q24.82,51.64,18,51.64a8.74,8.74,0,0,0-2.91.47,8.33,8.33,0,0,0-2.48,1.36,8.51,8.51,0,0,0-1.92,2.18,9.89,9.89,0,0,0-1.21,2.84Z"/></g></g></svg>