<svg xmlns="http://www.w3.org/2000/svg" viewBox="0 0 48.99 91.58"><defs><style>.cls-1{fill:#fff;}.cls-2{fill:#ff4321;}</style></defs><title>Asset 8</title><g id="Layer_2" data-name="Layer 2"><g id="Layer_1-2" data-name="Layer 1"><rect class="cls-1" width="48.99" height="91.58"/><path class="cls-2" d="M46.1,26.59V37q-7.64-6.41-15.81-6.4a20.14,20.14,0,0,0-15.17,6.47A21.84,21.84,0,0,0,8.91,52.81a21.32,21.32,0,0,0,6.21,15.51,20.5,20.5,0,0,0,15.2,6.32,18.78,18.78,0,0,0,7.87-1.47,23,23,0,0,0,3.77-2,42.78,42.78,0,0,0,4.1-3.1V78.65a31.79,31.79,0,0,1-15.87,4.28A29.34,29.34,0,0,1,8.82,74.19,29,29,0,0,1,0,52.93,30,30,0,0,1,7.4,33q9.09-10.71,23.49-10.71A29.86,29.86,0,0,1,46.1,26.59Z"/></g></g></svg>